# xmcd
#
# Track frame offsets: 
#        150
#        8221
#        19013
#        26669
#        36804
#        49437
#        59615
#        72401
#        84836
#        97208
#        108223
#        115873
#
# Disc length: 1694 seconds
#
# Revision: 0
# Processed by: cddbd v1.5.2PL0 Copyright (c) Steve Scherf et al.
# Submitted via: ExactAudioCopy v0.99pb5
#
DISCID=9d069c0c
DTITLE=Johnny Cash - Johnny Cash Sings Hank Williams
DYEAR=2015
DGENRE=Country
TTITLE0=I Can't Help It
TTITLE1=You Win Again
TTITLE2=Hey Good Lookin'
TTITLE3=I Could Never Be Ashamed Of You
TTITLE4=Next In Line
TTITLE5=Straight A's In Love
TTITLE6=Folsom Prison Blues
TTITLE7=Give My Love To Rose
TTITLE8=I Walk The Line
TTITLE9=I Love You Because
TTITLE10=Come In Stranger
TTITLE11=Mean Eyed Cat
EXTD=
EXTT0=
EXTT1=
EXTT2=
EXTT3=
EXTT4=
EXTT5=
EXTT6=
EXTT7=
EXTT8=
EXTT9=
EXTT10=
EXTT11=
PLAYORDER=
